# xmcd CD database file
#
# Track frame offsets:
#	150
#	23175
#	49050
#	76125
#	100050
#	124787
#	140275
#	169800
#
# Disc length: 2638 seconds
#
# Revision: 1
# Processed by: cddbd v1.5.2PL0 Copyright (c) Steve Scherf et al.
# Submitted via: CDex 1.51
#
DISCID=5d0a4c08
DTITLE=Clive Lendich - Thoughts of You
DYEAR=1998
DGENRE=New Age
TTITLE0=Thoughts Of You
TTITLE1=A Time To Think
TTITLE2=Blue Moods
TTITLE3=Together At Night
TTITLE4=Quiet Memories
TTITLE5=Romantic Rendezvous
TTITLE6=Memories
TTITLE7=Take Me Home
EXTD=YEAR: 1998
EXTT0=
EXTT1=
EXTT2=
EXTT3=
EXTT4=
EXTT5=
EXTT6=
EXTT7=
PLAYORDER=
